<svg width="41" height="40" viewBox="0 0 41 40" fill="none" xmlns="http://www.w3.org/2000/svg">
<g id="Instagram">
<ellipse id="Ellipse 55" cx="20.4639" cy="19.5994" rx="19.6318" ry="19.5991" fill="#002B5B"/>
<path id="Vector" d="M20.6969 15.1424C17.4335 15.1424 14.8013 17.5352 14.8013 20.5018C14.8013 23.4683 17.4335 25.8611 20.6969 25.8611C23.9603 25.8611 26.5925 23.4683 26.5925 20.5018C26.5925 17.5352 23.9603 15.1424 20.6969 15.1424ZM20.6969 23.986C18.588 23.986 16.864 22.4235 16.864 20.5018C16.864 18.58 18.5829 17.0175 20.6969 17.0175C22.8109 17.0175 24.5298 18.58 24.5298 20.5018C24.5298 22.4235 22.8058 23.986 20.6969 23.986ZM28.2088 14.9232C28.2088 15.6181 27.5931 16.1732 26.8337 16.1732C26.0691 16.1732 25.4585 15.6135 25.4585 14.9232C25.4585 14.2328 26.0743 13.6731 26.8337 13.6731C27.5931 13.6731 28.2088 14.2328 28.2088 14.9232ZM32.1135 16.1919C32.0263 14.5174 31.6055 13.0341 30.2561 11.812C28.9117 10.59 27.2801 10.2075 25.438 10.1235C23.5395 10.0256 17.8492 10.0256 15.9507 10.1235C14.1137 10.2028 12.4821 10.5853 11.1326 11.8074C9.78313 13.0294 9.36751 14.5127 9.27515 16.1872C9.1674 17.913 9.1674 23.0858 9.27515 24.8116C9.36238 26.4861 9.78313 27.9694 11.1326 29.1915C12.4821 30.4136 14.1086 30.796 15.9507 30.88C17.8492 30.9779 23.5395 30.9779 25.438 30.88C27.2801 30.8007 28.9117 30.4182 30.2561 29.1915C31.6004 27.9694 32.0212 26.4861 32.1135 24.8116C32.2213 23.0858 32.2213 17.9177 32.1135 16.1919ZM29.6609 26.6634C29.2606 27.5776 28.4859 28.2819 27.475 28.6504C25.9614 29.1961 22.3696 29.0702 20.6969 29.0702C19.0242 29.0702 15.4273 29.1915 13.9188 28.6504C12.9131 28.2866 12.1383 27.5823 11.7329 26.6634C11.1326 25.2874 11.2711 22.0223 11.2711 20.5018C11.2711 18.9812 11.1377 15.7114 11.7329 14.3401C12.1332 13.4259 12.9079 12.7216 13.9188 12.3531C15.4324 11.8074 19.0242 11.9333 20.6969 11.9333C22.3696 11.9333 25.9665 11.812 27.475 12.3531C28.4807 12.7169 29.2555 13.4212 29.6609 14.3401C30.2612 15.7161 30.1227 18.9812 30.1227 20.5018C30.1227 22.0223 30.2612 25.2921 29.6609 26.6634Z" fill="white"/>
</g>
</svg>
