<svg width="40" height="40" viewBox="0 0 40 40" fill="none" xmlns="http://www.w3.org/2000/svg">
<g id="Pinterest">
<ellipse id="Ellipse 56" cx="20.2949" cy="19.5994" rx="19.6318" ry="19.5991" fill="#002B5B"/>
<path id="Vector" d="M20.6784 9.15894C15.3019 9.15894 9.98828 12.3934 9.98828 17.6281C9.98828 20.9572 12.0634 22.8487 13.3211 22.8487C13.8399 22.8487 14.1386 21.5436 14.1386 21.1747C14.1386 20.7349 12.8966 19.7986 12.8966 17.9686C12.8966 14.1667 16.1037 11.4713 20.254 11.4713C23.8226 11.4713 26.4637 13.3013 26.4637 16.6635C26.4637 19.1745 25.3475 23.8843 21.7317 23.8843C20.4269 23.8843 19.3107 23.0331 19.3107 21.8131C19.3107 20.0256 20.6942 18.2949 20.6942 16.4507C20.6942 13.3202 15.7735 13.8877 15.7735 17.6707C15.7735 18.4651 15.8836 19.3447 16.2766 20.0682C15.5534 22.8771 14.0757 27.062 14.0757 29.956C14.0757 30.8498 14.2172 31.7293 14.3115 32.623C14.4897 32.8027 14.4006 32.7838 14.6731 32.694C17.3142 29.4311 17.2199 28.7928 18.4146 24.5227C19.0592 25.6292 20.7256 26.225 22.0461 26.225C27.6113 26.225 30.1109 21.3308 30.1109 16.9188C30.1109 12.2232 25.6148 9.15894 20.6784 9.15894Z" fill="white"/>
</g>
</svg>
