<svg width="40" height="40" viewBox="0 0 40 40" fill="none" xmlns="http://www.w3.org/2000/svg">
<g id="Youtube">
<ellipse id="Ellipse 57" cx="20.127" cy="19.5994" rx="19.6318" ry="19.5991" fill="#002B5B"/>
<path id="Vector" d="M31.4039 14.697C31.1273 13.7371 30.3124 12.9811 29.2777 12.7245C27.4023 12.2583 19.8819 12.2583 19.8819 12.2583C19.8819 12.2583 12.3616 12.2583 10.4861 12.7245C9.45144 12.9811 8.63653 13.7371 8.35995 14.697C7.85742 16.4369 7.85742 20.067 7.85742 20.067C7.85742 20.067 7.85742 23.6972 8.35995 25.4371C8.63653 26.397 9.45144 27.1215 10.4861 27.3781C12.3616 27.8443 19.8819 27.8443 19.8819 27.8443C19.8819 27.8443 27.4022 27.8443 29.2777 27.3781C30.3124 27.1215 31.1273 26.397 31.4039 25.4371C31.9064 23.6972 31.9064 20.067 31.9064 20.067C31.9064 20.067 31.9064 16.4369 31.4039 14.697ZM17.4223 23.3629V16.7711L23.7079 20.0671L17.4223 23.3629Z" fill="white"/>
</g>
</svg>
